<svg xmlns="http://www.w3.org/2000/svg" viewBox="0 0 24 24" fill="none">
  <path fill="#000000" d="M22.281 11.868a4.61 4.61 0 0 0-.666-2.394 4.693 4.693 0 0 0 .153-1.187 4.567 4.567 0 0 0-6.83-3.97A4.576 4.576 0 0 0 7.27 2.88 4.58 4.58 0 0 0 4.972 8.26a4.58 4.58 0 0 0 1.548 8.803c.25 0 .499-.02.745-.061A4.577 4.577 0 0 0 12 20.64a4.566 4.566 0 0 0 4.73-3.638 4.634 4.634 0 0 0 .747.061 4.58 4.58 0 0 0 4.804-5.195Zm-6.943 4.431-1.985 1.146a2.197 2.197 0 0 1-2.706-.384l-1.481-1.478a2.197 2.197 0 0 1-.384-2.706l1.146-1.985a2.196 2.196 0 0 1 1.901-1.1h1.706c.785 0 1.51.418 1.902 1.1l.853 1.478.293.507c.392.683.392 1.519 0 2.2l-1.145 1.986Zm-7.143-3.607-.853-1.478a2.197 2.197 0 0 1 .804-3.002l1.985-1.146a2.197 2.197 0 0 1 2.706.384l1.48 1.478c.556.556.709 1.402.385 2.084l-.852 1.478-.293.507a2.196 2.196 0 0 1-1.902 1.1H10.24a2.196 2.196 0 0 1-1.901-1.1Zm8.463-.507.853-1.478a2.197 2.197 0 0 0-.804-3.002l-1.986-1.146a2.197 2.197 0 0 0-2.706.384L10.528 8.42a2.197 2.197 0 0 0-.384 2.706l1.145 1.986c.392.682 1.117 1.1 1.902 1.1h1.706a2.196 2.196 0 0 0 1.901-1.1Zm-5.315 3.069H9.64a2.197 2.197 0 0 0-1.901 1.1l-1.146 1.986a2.197 2.197 0 0 0 .804 3.002l1.986 1.146c.835.482 1.882.331 2.547-.384l1.48-1.478a2.196 2.196 0 0 0 .385-2.706l-1.146-1.986a2.197 2.197 0 0 0-1.901-1.1Zm8.165 2.761-1.985-1.146a2.197 2.197 0 0 0-2.707.384l-1.48 1.478a2.197 2.197 0 0 0-.384 2.706l1.145 1.986c.393.682 1.117 1.1 1.902 1.1h1.706a2.197 2.197 0 0 0 1.901-1.1l1.146-1.986a2.197 2.197 0 0 0-.804-3.002Z"/>
</svg>
